# xmcd
# 
# Track frame offsets:
#     150
#     21914
#     32260
#     60385
#     86400
#     142330
#     186914
# 
# Disc length: 3587
# 
# Revision: 0
# Processed by: cddbd v1.5.2PL0 Copyright (c) Steve Scherf et al.
# Submitted via: fre:ac v1.0.17
# 
DISCID=560e0107
DTITLE=Schubert - Schweizer Oktett - Lebenssturme
DYEAR=0
DGENRE=
TTITLE0=Fantasie in Fm Op.103 D.940 I Allegro molto moderato
TTITLE1=Fantasie in Fm Op.103 D.940 II Largo
TTITLE2=Fantasie in Fm Op.103 D.940 III Scherzo. Allegro vivace
TTITLE3=Fantasie in Fm Op.103 D.940 IV Finale. Allegro molto moderato
TTITLE4=Grand Rondeau in A Op.107 D.951 Allegretto quasi andantino
TTITLE5=Deutsche Tanza Op.33 D.783
TTITLE6=Allegro mo non troppo in Am Op.posth.144 D.947 ''Lebenssturme''
EXTD=
EXTT0=
EXTT1=
EXTT2=
EXTT3=
EXTT4=
EXTT5=
EXTT6=
PLAYORDER=
